{"title":"Scooby Doo and the Samurai Sword (2009) BRrip 720p x264 Dual Aud","uid":10288312,"size":855726836,"categoryP":"video","categoryS":"hd___movies","magnet":"?xt=urn:btih:b0289beec149f2aff517f7c994fdfba7dcc06174&amp;dn=Scooby+Doo+and+the+Samurai+Sword+%282009%29+BRrip+720p+x264+Dual+Aud&amp;tr=udp%3A%2F%2Ftracker.openbittorrent.com%3A80&amp;tr=udp%3A%2F%2Fopen.demonii.com%3A1337&amp;tr=udp%3A%2F%2Ftracker.coppersurfer.tk%3A6969&amp;tr=udp%3A%2F%2Fexodus.desync.com%3A6969","seeders":17,"leechers":11,"uploader":"Xdesiars","files":4,"time":1401819849,"description":"Format                                   : Matroska\nFormat version                           : Version 2\nFile size                                : 799 MiB\nDuration                                 : 1h 14mn\nOverall bit rate                         : 1 492 Kbps\nMovie name                               : Scooby Doo and the Samurai Sword (2009) by XdesiArsenal\nEncoded date                             : UTC 2014-06-03 15:51:32\nWriting application                      : mkvmerge v5.0.1 ('Es ist Sommer') built on Nov 23 2011 20:48:57\nWriting library                          : libebml v1.2.2 + libmatroska v1.3.0\n\nVideo\nID                                       : 1\nFormat                                   : AVC\nFormat/Info                              : Advanced Video Codec\nFormat profile                           : &lt;a class=&quot;__cf_email__&quot; href=&quot;/cdn-cgi/l/email-protection&quot; data-cfemail=&quot;a1e9c8c6c9e1ed928f90&quot;&gt;[email&amp;#160;protected]&lt;/a&gt;&lt;script cf-hash='f9e31' type=&quot;text/javascript&quot;&gt;\n/* &lt;![CDATA[ */!function(){try{var t=&quot;currentScript&quot;in document?document.currentScript:function(){for(var t=document.getElementsByTagName(&quot;script&quot;),e=t.length;e--;)if(t[e].getAttribute(&quot;cf-hash&quot;))return t[e]}();if(t&amp;&amp;t.previousSibling){var e,r,n,i,c=t.previousSibling,a=c.getAttribute(&quot;data-cfemail&quot;);if(a){for(e=&quot;&quot;,r=parseInt(a.substr(0,2),16),n=2;a.length-n;n+=2)i=parseInt(a.substr(n,2),16)^r,e+=String.fromCharCode(i);e=document.createTextNode(e),c.parentNode.replaceChild(e,c)}}}catch(u){}}();/* ]]&gt; */&lt;/script&gt;\nFormat settings, CABAC                   : Yes\nFormat settings, ReFrames                : 4 frames\nMuxing mode                              : Header stripping\nCodec ID                                 : V_MPEG4/ISO/AVC\nDuration                                 : 1h 14mn\nBit rate                                 : 1 118 Kbps\nWidth                                    : 1 280 pixels\nHeight                                   : 720 pixels\nDisplay aspect ratio                     : 16:9\nFrame rate mode                          : Constant\nFrame rate                               : 23.976 fps\nColor space                              : YUV\nChroma subsampling                       : 4:2:0\nBit depth                                : 8 bits\nScan type                                : Progressive\nBits/(Pixel*Frame)                       : 0.051\nStream size                              : 577 MiB (72%)\nTitle                                    : Scooby Doo and the Samurai Sword (2009) by XdesiArsenal\nWriting library                          : x264 core 133 r2334 a3ac64b\nDefault                                  : Yes\nForced                                   : No\n\nAudio #1\nID                                       : 2\nFormat                                   : AC-3\nFormat/Info                              : Audio Coding 3\nMode extension                           : CM (complete main)\nFormat settings, Endianness              : Big\nMuxing mode                              : Header stripping\nCodec ID                                 : A_AC3\nDuration                                 : 1h 14mn\nBit rate mode                            : Constant\nBit rate                                 : 128 Kbps\nChannel(s)                               : 6 channels\nChannel positions                        : Front: L C R, Side: L R, LFE\nSampling rate                            : 48.0 KHz\nBit depth                                : 16 bits\nCompression mode                         : Lossy\nStream size                              : 68.5 MiB (9%)\nTitle                                    : XdesiArsenal\nLanguage                                 : English\nDefault                                  : Yes\nForced                                   : No\n\nAudio #2\nID                                       : 3\nFormat                                   : AC-3\nFormat/Info                              : Audio Coding 3\nMode extension                           : CM (complete main)\nFormat settings, Endianness              : Big\nMuxing mode                              : Header stripping\nCodec ID                                 : A_AC3\nDuration                                 : 1h 14mn\nBit rate mode                            : Constant\nBit rate                                 : 256 Kbps\nChannel(s)                               : 2 channels\nChannel positions                        : Front: L R\nSampling rate                            : 44.1 KHz\nBit depth                                : 16 bits\nCompression mode                         : Lossy\nDelay relative to video                  : 300ms\nStream size                              : 137 MiB (17%)\nTitle                                    : XdesiArsenal\nLanguage                                 : Hindi\nDefault                                  : No\nForced                                   : No\n","torrent":{"xt":"urn:btih:b0289beec149f2aff517f7c994fdfba7dcc06174","amp;dn":"Scooby+Doo+and+the+Samurai+Sword+%282009%29+BRrip+720p+x264+Dual+Aud","amp;tr":["udp%3A%2F%2Ftracker.openbittorrent.com%3A80","udp%3A%2F%2Fopen.demonii.com%3A1337","udp%3A%2F%2Ftracker.coppersurfer.tk%3A6969","udp%3A%2F%2Fexodus.desync.com%3A6969"],"infoHash":"b0289beec149f2aff517f7c994fdfba7dcc06174","infoHashBuffer":{"type":"Buffer","data":[176,40,155,238,193,73,242,175,245,23,247,201,148,253,251,167,220,192,97,116]},"announce":[],"urlList":[]}}